<?xml version="1.0" standalone="no"?>
<!DOCTYPE svg PUBLIC "-//W3C//DTD SVG 20010904//EN"
 "http://www.w3.org/TR/2001/REC-SVG-20010904/DTD/svg10.dtd">
<svg version="1.0" xmlns="http://www.w3.org/2000/svg"
 width="225.000000pt" height="225.000000pt" viewBox="0 0 225.000000 225.000000"
 preserveAspectRatio="xMidYMid meet">
<metadata>
Created by potrace 1.10, written by Peter Selinger 2001-2011
</metadata>
<g transform="translate(0.000000,225.000000) scale(0.100000,-0.100000)"
fill="#000000" stroke="none">
<path d="M0 1125 l0 -1125 1125 0 1125 0 0 1125 0 1125 -1125 0 -1125 0 0
-1125z m1040 -427 c19 -6 52 -23 73 -40 l37 -29 0 46 0 45 90 0 c90 0 90 0 90
-25 l0 -26 28 21 c82 61 219 21 272 -79 l19 -36 1 73 0 73 88 -3 c79 -3 87 -5
90 -24 3 -20 3 -20 52 4 33 16 58 22 75 18 23 -6 25 -10 25 -70 l0 -64 -37 5
c-29 4 -46 -1 -73 -19 l-35 -24 -3 -137 -3 -137 -89 0 -90 0 0 68 -1 67 -16
-30 c-23 -44 -44 -65 -85 -86 -50 -25 -127 -25 -178 1 l-40 20 0 -65 0 -65
-90 0 -90 0 0 86 0 85 -33 -25 c-107 -81 -271 -70 -350 24 l-28 33 -37 -36
c-53 -52 -115 -77 -190 -77 -73 0 -114 15 -167 61 -101 89 -99 233 5 322 99
84 253 76 350 -19 l36 -34 34 36 c73 75 157 95 270 62z"/>
<path d="M458 583 c-8 -10 -18 -26 -21 -35 -6 -16 2 -18 79 -18 l85 0 -15 29
c-9 16 -23 31 -31 35 -32 12 -82 6 -97 -11z"/>
<path d="M915 576 c-67 -67 -23 -211 60 -190 15 4 35 19 44 35 15 27 21 29 74
29 l57 0 0 40 0 40 -60 0 c-43 0 -60 4 -60 13 0 21 -44 57 -69 57 -12 0 -33
-11 -46 -24z"/>
<path d="M1374 588 c-50 -24 -61 -131 -19 -173 55 -56 135 -15 135 70 0 93
-49 136 -116 103z"/>
<path d="M435 438 c4 -13 18 -34 33 -47 20 -18 33 -22 60 -17 19 3 42 12 51
20 10 9 42 16 82 18 64 3 66 4 58 26 -8 21 -12 22 -149 22 l-141 0 6 -22z"/>
</g>
</svg>
