<?xml version="1.0" standalone="no"?>
<!DOCTYPE svg PUBLIC "-//W3C//DTD SVG 20010904//EN"
 "http://www.w3.org/TR/2001/REC-SVG-20010904/DTD/svg10.dtd">
<svg version="1.0" xmlns="http://www.w3.org/2000/svg"
 width="225.000000pt" height="225.000000pt" viewBox="0 0 225.000000 225.000000"
 preserveAspectRatio="xMidYMid meet">
<metadata>
Created by potrace 1.10, written by Peter Selinger 2001-2011
</metadata>
<g transform="translate(0.000000,225.000000) scale(0.100000,-0.100000)"
fill="#614b98" stroke="none">
<path d="M131 1128 c-17 -106 -31 -201 -31 -210 0 -15 10 -18 69 -18 l69 0 7
68 c3 37 10 90 14 117 l8 50 12 -45 c7 -25 22 -76 35 -115 l23 -70 43 0 44 0
36 115 c42 129 44 128 56 -32 l6 -88 69 0 c83 0 80 -19 39 220 -16 96 -30 181
-30 188 0 8 -23 12 -79 12 l-78 0 -27 -93 c-14 -51 -26 -101 -26 -110 0 -30
-17 -18 -24 16 -4 17 -16 67 -27 110 l-21 77 -78 0 -77 0 -32 -192z"/>
<path d="M1020 1110 l0 -210 70 0 69 0 3 110 3 110 66 -108 66 -107 71 -3 72
-3 0 211 0 210 -71 0 -72 0 5 -115 c3 -63 4 -115 3 -115 -2 0 -33 52 -71 115
l-69 115 -72 0 -73 0 0 -210z"/>
<path d="M1530 1110 l0 -211 143 3 142 3 -1 25 c-1 14 -2 37 -3 53 -1 27 -2
27 -66 27 -63 0 -65 1 -65 25 0 24 3 25 60 25 l60 0 0 54 0 55 -57 -2 c-53 -2
-58 0 -61 21 -3 21 0 22 62 22 l66 0 0 55 0 55 -140 0 -140 0 0 -210z"/>
<path d="M1860 1255 l0 -65 45 0 45 0 0 -145 0 -145 75 0 75 0 0 145 0 145 40
0 40 0 0 65 0 65 -160 0 -160 0 0 -65z"/>
<path d="M731 1063 c4 -75 1 -73 105 -73 l94 0 0 60 0 60 -100 0 -101 0 2 -47z"/>
</g>
</svg>
