<?xml version="1.0" standalone="no"?>
<!DOCTYPE svg PUBLIC "-//W3C//DTD SVG 20010904//EN"
 "http://www.w3.org/TR/2001/REC-SVG-20010904/DTD/svg10.dtd">
<svg version="1.0" xmlns="http://www.w3.org/2000/svg"
 width="600.000000pt" height="600.000000pt" viewBox="0 0 600.000000 600.000000"
 preserveAspectRatio="xMidYMid meet">
<metadata>
Created by potrace 1.10, written by Peter Selinger 2001-2011
</metadata>
<g transform="translate(0.000000,600.000000) scale(0.100000,-0.100000)"
fill="#38761d" stroke="none">
<path d="M2338 5217 c-3 -26 -5 -68 -6 -199 -2 -155 -4 -158 -77 -127 -35 16
-41 23 -45 56 -4 33 -9 38 -33 41 -57 7 -57 7 -57 -320 l0 -300 50 -64 50 -64
-6 -138 c-3 -75 -10 -153 -15 -172 -6 -19 -13 -102 -16 -185 -3 -82 -10 -155
-15 -162 -5 -6 -12 -121 -15 -255 -5 -218 -4 -244 11 -257 9 -7 16 -27 16 -43
0 -16 6 -43 13 -61 19 -46 11 -67 -22 -67 -31 0 -139 -51 -152 -72 -12 -18
-11 -56 1 -63 6 -4 31 6 57 21 42 24 55 27 149 27 75 0 109 -4 121 -14 58 -46
163 -64 207 -35 14 9 35 16 46 16 11 0 23 7 26 15 5 12 28 15 119 15 63 0 116
-4 120 -9 10 -17 92 -53 111 -49 14 2 20 13 21 41 2 33 -1 37 -25 43 -33 7
-92 35 -110 52 -15 13 -64 17 -156 13 -52 -3 -88 -14 -158 -52 -45 -24 -127
-6 -197 43 -26 18 -23 48 5 48 10 0 32 11 50 25 18 14 48 28 66 32 18 3 38 10
45 15 6 5 85 9 174 9 129 -1 166 -4 179 -16 9 -8 24 -15 32 -15 9 0 29 -6 45
-14 15 -8 45 -23 66 -33 86 -41 230 -221 253 -316 3 -15 10 -30 15 -33 5 -3 9
-18 9 -33 0 -22 -12 -37 -57 -72 -32 -25 -88 -60 -125 -78 -37 -18 -70 -37
-73 -42 -10 -14 -61 -10 -75 6 -7 8 -19 15 -26 15 -8 0 -48 20 -88 45 -41 25
-77 45 -80 45 -9 0 -131 83 -138 94 -4 6 5 21 20 33 22 18 40 22 98 23 52 0
75 -4 84 -15 7 -8 17 -15 22 -15 5 0 16 -7 25 -15 11 -11 31 -15 66 -13 51 3
51 3 53 38 2 38 -8 50 -44 50 -12 0 -41 12 -63 26 -34 21 -57 27 -133 31 -89
6 -93 5 -147 -26 -78 -44 -162 -44 -242 -1 -75 40 -144 42 -153 6 -11 -45 -2
-61 41 -67 22 -3 64 -17 93 -32 30 -15 70 -27 90 -27 29 0 58 -14 135 -68 111
-76 103 -71 217 -135 165 -93 174 -97 210 -97 19 0 54 13 82 30 26 16 50 30
53 30 2 0 39 20 81 45 41 25 80 45 84 45 5 0 13 7 17 15 5 9 33 34 63 56 57
43 210 183 210 192 0 3 19 35 43 71 23 36 52 82 65 102 25 41 57 129 67 189 4
22 13 50 21 62 21 33 20 320 -1 370 -8 19 -15 50 -15 67 0 18 -7 41 -15 52 -8
10 -15 26 -15 36 0 27 -71 179 -117 248 -49 77 -185 220 -207 220 -24 0 -19
19 7 30 12 6 29 15 38 22 13 9 24 8 52 -5 27 -13 53 -16 107 -13 61 4 76 9 96
31 12 14 27 25 32 25 12 0 54 99 47 111 -4 5 -22 9 -41 9 -27 0 -36 -5 -44
-24 -14 -37 -62 -66 -109 -66 -29 0 -41 4 -41 14 0 8 5 18 11 21 5 4 14 17 20
28 5 12 13 29 18 37 9 16 29 60 56 125 11 29 15 63 13 120 l-3 80 -33 3 c-27
3 -34 -1 -42 -23 -6 -14 -10 -52 -10 -83 0 -99 -40 -182 -126 -262 -68 -64
-109 -90 -139 -90 -29 0 -34 17 -7 27 9 4 33 23 52 42 114 116 139 325 57 470
-32 57 -108 138 -142 151 -30 12 -55 -6 -55 -40 0 -24 7 -33 41 -50 41 -21 99
-98 99 -131 0 -10 -12 -31 -26 -48 -23 -27 -32 -31 -76 -31 -36 0 -54 5 -63
16 -14 20 -54 13 -80 -13 -15 -15 -15 -18 12 -40 15 -13 42 -31 60 -39 39 -17
126 -18 153 -2 24 16 32 8 32 -34 -1 -61 -58 -147 -129 -191 -44 -28 -150 -49
-175 -36 -9 5 -30 9 -46 9 -16 0 -35 7 -42 15 -17 20 -24 19 -59 -11 -37 -31
-39 -51 -6 -60 13 -3 29 -12 36 -20 6 -8 22 -14 35 -14 13 0 24 -5 24 -11 0
-13 -40 -48 -56 -49 -6 0 -19 -9 -29 -20 -10 -11 -23 -19 -29 -17 -6 3 -31
-12 -55 -31 -34 -28 -47 -33 -60 -25 -9 6 -15 19 -14 29 1 10 -4 29 -11 44 -7
14 -16 56 -20 93 -6 59 -4 73 14 103 12 19 25 34 30 34 4 0 17 16 29 35 17 29
20 52 20 138 1 161 -8 225 -30 232 -30 10 -59 -12 -59 -45 0 -35 -3 -37 -65
-41 -47 -4 -50 -3 -53 21 -7 64 -11 70 -47 70 -36 0 -38 -3 -47 -65 -3 -16
-13 -21 -53 -26 -28 -4 -54 -3 -59 1 -9 9 -16 132 -8 168 2 12 9 22 14 22 5 0
21 8 34 19 32 25 107 17 151 -16 66 -50 141 -36 115 22 -7 14 -18 25 -25 25
-7 0 -35 15 -61 34 -44 31 -55 34 -117 34 -57 0 -71 -3 -83 -19 -12 -18 -14
-18 -20 -4 -9 25 -7 113 3 119 5 3 20 -3 34 -14 47 -37 202 -21 258 27 9 7 38
13 67 13 40 0 63 -7 100 -30 71 -43 112 -37 112 18 0 17 -9 27 -36 38 -20 8
-54 27 -75 41 -36 24 -44 25 -110 19 -44 -5 -87 -16 -116 -32 -69 -36 -146
-34 -201 7 -31 23 -42 38 -42 57 0 15 -4 32 -8 38 -10 15 -72 16 -74 1z m-20
-433 c9 -3 12 -24 10 -76 l-3 -73 -50 -6 c-27 -3 -53 -4 -57 -2 -10 5 -11 157
-1 166 6 6 71 1 101 -9z m410 -249 c20 -5 22 -11 22 -75 0 -68 -1 -71 -39
-110 l-39 -40 -195 0 -194 0 -37 33 c-36 33 -36 34 -36 114 0 44 2 82 4 84 6
6 486 0 514 -6z m-68 -322 c3 -2 8 -41 12 -86 4 -45 10 -104 14 -130 5 -37 3
-56 -11 -81 -17 -32 -17 -36 -2 -84 10 -28 17 -64 17 -79 0 -21 12 -41 45 -73
24 -24 42 -47 39 -52 -3 -4 -27 -8 -53 -8 -29 0 -53 -6 -60 -14 -7 -8 -23 -17
-36 -20 -14 -4 -25 -13 -25 -21 0 -7 -9 -20 -20 -28 -12 -8 -31 -32 -42 -53
-19 -35 -22 -59 -26 -209 -2 -96 -8 -175 -14 -182 -6 -7 -25 -13 -44 -13 -18
0 -39 -6 -46 -14 -8 -7 -25 -17 -38 -21 -14 -4 -33 -16 -43 -27 -27 -28 -51
-19 -55 19 -2 17 -10 37 -18 43 -11 10 -14 49 -13 204 0 105 5 216 10 246 5
30 12 105 14 165 3 61 9 139 14 175 14 91 20 163 23 253 1 43 7 82 13 87 5 4
24 10 40 12 41 4 299 -3 305 -9z m703 -170 c77 -68 135 -133 178 -198 55 -83
114 -204 111 -226 -2 -9 4 -22 13 -29 8 -7 15 -25 15 -41 0 -16 7 -48 15 -73
23 -66 23 -340 1 -381 -9 -16 -16 -39 -16 -50 -1 -45 -52 -164 -76 -178 -8 -4
-14 -16 -14 -25 0 -26 -156 -200 -193 -216 -39 -16 -47 -12 -47 20 0 26 -100
206 -131 236 -10 10 -21 24 -26 31 -10 15 -118 95 -161 118 -23 13 -31 25 -35
55 -6 51 5 61 84 80 35 8 78 22 94 31 41 23 105 74 105 86 0 5 9 20 20 34 11
14 20 35 20 47 0 12 5 27 11 33 5 5 13 32 17 59 8 53 23 60 34 17 4 -14 13
-30 19 -34 7 -4 13 -23 13 -43 1 -19 5 -38 9 -42 4 -4 7 -18 7 -30 0 -28 37
-41 68 -25 19 10 20 13 6 73 -19 83 -33 126 -54 165 -23 43 -115 143 -132 143
-7 0 -30 11 -51 25 -20 14 -56 30 -79 35 -24 5 -62 15 -85 22 -35 10 -56 10
-110 -1 -212 -40 -204 -41 -223 42 -12 57 -12 62 5 71 10 6 26 18 36 28 9 9
26 19 38 23 12 3 21 10 21 15 0 4 17 17 38 28 20 10 64 37 97 58 58 37 64 39
165 45 136 7 155 5 193 -28z m-249 -378 c11 -8 27 -15 36 -15 24 0 75 -59 93
-110 21 -57 21 -97 1 -146 -15 -37 -23 -47 -68 -94 -43 -44 -141 -66 -163 -37
-6 6 -13 57 -16 111 -4 59 -12 108 -21 121 -25 38 -85 95 -100 95 -17 0 -40
36 -31 49 3 5 24 12 48 16 23 4 49 11 57 16 25 14 143 10 164 -6z m-251 -169
c21 -21 37 -49 41 -71 11 -55 7 -318 -4 -329 -6 -6 -19 -5 -35 2 -15 7 -75 12
-145 12 l-120 0 0 155 c0 167 2 175 59 238 23 25 31 27 98 27 69 0 74 -2 106
-34z"/>
<path d="M2383 4065 c-20 -15 -6 -45 21 -45 35 0 44 -12 51 -73 8 -60 24 -79
49 -58 9 7 12 27 10 61 -3 41 -1 51 16 60 11 6 26 10 33 9 31 -4 38 2 35 29
l-3 27 -99 0 c-54 0 -105 -5 -113 -10z"/>
<path d="M1412 2078 c-8 -8 -12 -45 -12 -100 0 -69 4 -98 20 -128 25 -49 45
-60 110 -60 45 0 56 4 81 31 28 30 29 34 29 139 0 83 -3 110 -15 120 -12 10
-18 10 -30 0 -12 -10 -15 -36 -15 -116 0 -94 -2 -104 -21 -114 -27 -15 -77 -3
-89 20 -6 10 -10 59 -10 107 0 81 -9 113 -30 113 -3 0 -11 -5 -18 -12z"/>
<path d="M1886 2074 c-3 -9 -6 -49 -6 -90 0 -83 -14 -96 -41 -41 -33 66 -93
137 -117 137 -23 0 -23 0 -20 -142 l3 -143 25 0 c24 0 25 3 28 65 4 93 8 100
37 65 13 -17 24 -36 25 -43 0 -14 38 -72 55 -84 6 -4 22 -8 38 -8 l27 0 0 144
c0 122 -2 145 -16 150 -24 9 -31 7 -38 -10z"/>
<path d="M2458 2083 c-31 -2 -61 -10 -67 -17 -8 -9 -11 -59 -9 -142 l3 -129
93 -3 c86 -3 92 -1 92 17 0 27 -16 35 -69 36 -47 0 -69 19 -58 49 5 11 19 16
51 16 43 0 58 11 49 38 -3 7 -21 12 -43 12 -35 0 -70 19 -70 39 0 19 29 31 77
31 39 0 55 4 59 15 8 19 -14 46 -35 43 -9 -1 -42 -3 -73 -5z"/>
<path d="M2683 2082 c-65 -4 -65 -4 -61 -167 l3 -120 25 0 c22 0 25 5 28 43 3
39 5 42 32 42 24 0 32 -7 50 -45 18 -38 26 -45 51 -45 35 0 35 3 7 56 l-22 41
22 28 c33 42 30 100 -8 135 -33 31 -53 36 -127 32z m86 -66 c7 -8 11 -27 9
-43 -3 -26 -6 -28 -47 -28 -42 0 -45 2 -54 34 -6 25 -5 36 5 42 21 14 75 10
87 -5z"/>
<path d="M2922 2060 c-35 -25 -42 -36 -42 -63 0 -39 30 -72 75 -82 57 -13 85
-27 85 -45 0 -34 -67 -41 -95 -10 -20 22 -75 28 -75 8 0 -7 14 -28 31 -45 27
-30 35 -33 88 -33 68 0 106 23 116 71 12 55 -16 76 -153 115 -7 2 -12 14 -10
26 4 29 58 38 78 14 13 -17 70 -22 70 -7 0 26 -17 45 -57 62 -58 25 -63 24
-111 -11z"/>
<path d="M3252 2074 c-26 -19 -7 -44 33 -44 21 0 35 -5 36 -12 0 -7 1 -60 2
-118 l2 -105 28 -3 c17 -2 27 1 27 10 1 7 2 60 3 118 l2 105 40 5 c35 4 40 8
40 30 0 24 0 25 -99 25 -57 0 -105 -5 -114 -11z"/>
<path d="M3523 2083 c-21 -8 -15 -47 12 -83 14 -19 25 -39 25 -46 0 -6 7 -17
15 -24 9 -7 15 -35 17 -73 3 -59 4 -62 31 -65 27 -3 27 -2 27 51 0 36 5 59 15
67 8 7 15 17 15 23 0 5 14 32 30 59 30 49 38 82 21 92 -18 11 -36 -5 -64 -54
-16 -28 -34 -50 -41 -50 -17 0 -36 21 -36 40 0 12 -45 72 -53 69 -1 0 -8 -3
-14 -6z"/>
<path d="M3974 2071 c-64 -29 -84 -62 -84 -137 0 -59 3 -67 36 -104 35 -38 39
-40 98 -40 59 0 64 2 99 38 35 36 37 41 37 102 0 82 -14 110 -70 137 -55 27
-65 27 -116 4z m105 -60 c18 -18 26 -55 22 -114 -2 -52 -93 -73 -135 -31 -25
25 -21 112 6 141 27 29 80 31 107 4z"/>
<path d="M4253 2082 c-18 -2 -33 -7 -34 -13 0 -5 -1 -69 -1 -141 l-1 -133 29
0 c28 0 29 2 32 58 l3 57 44 0 c24 0 47 5 51 12 10 16 -25 38 -62 38 -26 0
-33 5 -38 26 -10 38 6 48 69 45 49 -2 55 0 55 18 0 11 -6 23 -12 28 -14 8 -79
10 -135 5z"/>
<path d="M1996 2043 c-3 -21 -4 -85 -3 -143 2 -100 3 -105 24 -108 32 -5 42
24 38 114 -2 43 -4 100 -4 127 -1 43 -3 47 -25 47 -20 0 -25 -6 -30 -37z"/>
<path d="M2090 2053 c1 -15 7 -39 15 -53 8 -14 14 -35 15 -47 0 -12 6 -34 14
-50 16 -31 31 -68 40 -96 5 -14 14 -18 43 -15 35 3 39 6 51 48 8 25 17 54 21
65 27 69 34 95 38 133 5 38 3 42 -16 42 -13 0 -25 -9 -30 -22 -27 -72 -34 -96
-38 -126 -3 -18 -10 -35 -16 -39 -15 -9 -47 35 -47 66 0 15 -6 36 -14 47 -8
11 -16 31 -18 44 -2 19 -10 26 -30 28 -25 3 -28 0 -28 -25z"/>
<path d="M3145 2068 c-3 -8 -4 -72 -3 -144 l3 -129 28 -3 28 -3 -3 143 c-3
140 -4 143 -26 146 -12 2 -24 -3 -27 -10z"/>
<path d="M1404 1697 c-2 -7 -3 -109 -2 -227 l3 -215 138 -3 c150 -3 162 2 139
54 -11 22 -17 24 -90 24 -43 0 -83 5 -88 10 -7 7 -9 70 -6 179 4 136 2 170 -9
177 -22 14 -80 14 -85 1z"/>
<path d="M1760 1700 c-13 -8 -16 -428 -3 -441 6 -6 28 -9 49 -7 l39 3 3 205
c1 113 0 214 -2 226 -4 15 -13 20 -41 20 -19 0 -40 -3 -45 -6z"/>
<path d="M1943 1702 c-8 -5 -12 -73 -14 -227 l-1 -220 46 -3 46 -3 0 126 c0
115 2 126 18 123 9 -2 18 -14 20 -28 2 -14 17 -53 33 -88 16 -34 29 -70 29
-80 0 -11 8 -26 18 -35 22 -20 91 -23 96 -4 4 13 42 125 60 172 6 17 21 42 34
55 l23 25 -2 -122 c0 -67 2 -126 5 -132 10 -16 86 -14 87 2 3 71 -1 430 -6
437 -8 13 -76 13 -109 0 -18 -7 -26 -17 -26 -34 0 -14 -4 -27 -9 -30 -5 -3
-19 -38 -32 -78 -13 -40 -29 -82 -36 -93 -7 -11 -13 -29 -13 -41 0 -11 -3 -24
-7 -27 -10 -11 -53 34 -53 54 0 18 -18 66 -46 122 -8 16 -14 38 -14 49 0 11
-9 35 -20 53 -17 28 -25 32 -68 33 -26 0 -53 -2 -59 -6z"/>
<path d="M2538 1702 c-16 -3 -18 -22 -17 -223 0 -120 4 -221 8 -223 4 -3 74
-6 156 -7 l150 -2 0 39 0 39 -98 5 c-105 5 -117 11 -117 62 0 37 25 48 104 48
62 0 66 2 72 25 12 48 1 55 -86 55 l-81 0 3 53 3 52 94 2 c101 2 113 8 109 53
l-3 24 -140 1 c-77 1 -148 -1 -157 -3z"/>
<path d="M2918 1698 c-16 -12 -17 -35 -15 -228 l2 -215 50 0 50 0 0 70 0 70
48 3 c38 3 48 0 53 -15 3 -10 14 -35 24 -55 11 -20 20 -44 20 -52 0 -9 11 -18
25 -21 14 -3 36 -7 49 -10 14 -3 29 1 36 11 11 12 9 20 -8 44 -12 16 -22 36
-22 43 0 8 -7 20 -15 27 -15 13 -21 60 -7 60 4 0 17 15 30 33 17 26 22 47 22
98 0 68 -6 78 -71 127 -25 19 -250 27 -271 10z m224 -95 c54 -52 26 -107 -60
-115 -27 -3 -56 -1 -64 3 -18 10 -22 107 -6 126 6 7 31 13 56 13 36 0 52 -6
74 -27z"/>
<path d="M3351 1696 c-8 -9 -11 -78 -9 -227 l3 -214 48 -3 47 -3 0 220 c0 208
-1 221 -19 231 -27 14 -56 13 -70 -4z"/>
<path d="M3648 1704 c-14 -3 -32 -12 -38 -20 -7 -8 -18 -14 -25 -14 -14 0 -59
-62 -74 -103 -6 -16 -11 -57 -11 -92 0 -78 32 -149 87 -191 35 -27 46 -29 134
-32 l96 -4 52 53 c40 40 51 59 49 78 -2 21 -9 27 -36 29 -28 3 -39 -3 -65 -33
-43 -49 -96 -61 -149 -34 -23 12 -43 31 -48 47 -6 15 -15 35 -20 44 -16 28
-12 68 11 115 27 55 66 83 117 83 34 0 46 -6 78 -40 30 -31 46 -40 71 -40 22
0 36 6 40 17 9 22 -26 85 -56 99 -13 7 -27 17 -30 23 -8 12 -139 22 -183 15z"/>
<path d="M4008 1698 c-15 -11 -17 -39 -19 -228 l-1 -215 48 0 49 0 6 61 c6 65
32 113 61 114 11 0 39 -33 75 -87 l58 -88 53 -3 c33 -2 52 1 52 8 0 6 -34 62
-75 125 -41 62 -75 120 -75 129 0 14 42 68 112 144 38 42 28 53 -38 46 -49 -6
-53 -9 -124 -95 -41 -49 -80 -89 -87 -89 -10 0 -13 21 -12 85 1 47 0 87 -2 89
-14 12 -67 15 -81 4z"/>
<path d="M1467 1106 c-34 -15 -67 -62 -67 -95 0 -51 66 -121 116 -121 9 0 32
9 50 21 40 24 55 69 44 128 -9 48 -5 43 -49 64 -39 20 -55 20 -94 3z m93 -56
c29 -29 25 -64 -11 -94 -38 -32 -44 -32 -75 0 -22 21 -25 31 -19 62 4 20 9 40
11 44 10 16 74 8 94 -12z"/>
<path d="M1663 1113 c-9 -3 -13 -35 -13 -108 0 -85 3 -104 16 -109 23 -9 97
-7 112 2 23 15 2 41 -36 44 l-37 3 -3 65 c-4 103 -8 116 -39 103z"/>
<path d="M1825 1109 c-3 -8 -4 -60 -3 -115 l3 -99 55 0 c48 0 55 2 55 20 0 15
-7 20 -27 20 -48 1 -59 20 -52 89 4 46 2 66 -9 81 -13 17 -16 18 -22 4z"/>
<path d="M2002 1108 c-40 -20 -44 -91 -5 -96 12 -2 27 -10 33 -18 7 -8 23 -14
36 -14 26 0 31 -19 12 -38 -14 -14 -48 -16 -48 -4 0 8 -43 32 -56 32 -3 0 -4
-9 -2 -21 4 -30 67 -64 101 -55 39 9 69 61 55 92 -6 13 -18 24 -26 24 -19 0
-82 39 -82 51 0 5 16 9 35 9 19 0 35 -4 35 -10 0 -5 7 -10 15 -10 9 0 15 9 15
23 0 19 -8 26 -39 35 -45 14 -49 14 -79 0z"/>
<path d="M2220 1105 c-19 -7 -37 -21 -40 -31 -3 -11 -12 -32 -20 -47 -11 -23
-11 -32 -2 -45 7 -9 16 -27 22 -39 10 -23 58 -53 85 -53 26 0 73 28 86 51 14
26 -4 49 -25 34 -66 -48 -63 -48 -90 -30 -21 14 -26 25 -26 60 0 45 10 58 48
68 16 4 29 -1 40 -14 18 -21 47 -25 58 -7 10 15 -54 68 -81 67 -11 -1 -36 -7
-55 -14z"/>
<path d="M2429 1097 c-63 -43 -57 -150 11 -190 45 -26 81 -18 127 28 37 37 43
77 17 126 -15 30 -65 59 -102 59 -11 0 -34 -10 -53 -23z m85 -28 c27 -13 42
-55 31 -88 -3 -11 -17 -27 -32 -36 -24 -16 -27 -16 -52 2 -14 11 -30 32 -36
48 -8 24 -6 30 23 56 37 33 34 32 66 18z"/>
<path d="M2637 1113 c-4 -3 -7 -53 -7 -110 0 -95 1 -103 19 -103 18 0 20 9 23
93 4 106 -8 148 -35 120z"/>
<path d="M2725 1107 c-3 -7 -4 -58 -3 -113 l3 -99 55 0 c48 0 55 2 55 20 0 15
-7 20 -29 21 -42 2 -56 27 -56 105 0 63 -13 98 -25 66z"/>
<path d="M2965 1108 c-3 -8 -4 -59 -3 -114 l3 -99 58 -3 c56 -3 58 -2 55 20
-2 18 -11 24 -37 28 -40 6 -52 33 -49 113 1 49 -16 85 -27 55z"/>
<path d="M3110 1105 c-8 -10 -11 -40 -8 -90 3 -70 6 -78 33 -100 35 -28 66
-31 100 -9 31 20 45 63 45 139 0 50 -4 64 -17 69 -25 10 -33 -11 -33 -86 0
-58 -3 -69 -21 -79 -16 -8 -28 -8 -45 0 -22 10 -24 16 -24 85 0 77 -9 97 -30
71z"/>
<path d="M3324 1107 c-2 -7 -3 -58 -2 -113 2 -80 6 -99 18 -99 12 0 16 17 18
80 2 44 0 95 -3 113 -6 33 -22 42 -31 19z"/>
<path d="M3414 1107 c-9 -24 1 -207 11 -210 6 -1 12 23 15 53 5 53 22 72 28
31 2 -11 10 -25 18 -31 8 -7 14 -21 14 -31 0 -14 7 -19 25 -19 24 0 29 7 37
65 2 11 11 21 21 23 14 3 17 -4 17 -36 0 -40 20 -69 40 -57 11 7 14 182 4 209
-15 40 -84 -12 -84 -62 0 -12 -11 -34 -24 -49 l-24 -28 -7 30 c-13 60 -48 125
-67 125 -10 0 -21 -6 -24 -13z"/>
<path d="M3687 1113 c-11 -10 -8 -211 2 -217 24 -15 41 7 41 55 0 37 4 49 15
49 9 0 19 -10 24 -23 13 -32 69 -90 81 -82 14 9 13 212 -1 221 -18 11 -30 -18
-24 -61 8 -65 -7 -72 -44 -20 -51 71 -79 94 -94 78z"/>
<path d="M4043 1105 c-37 -16 -63 -60 -63 -108 0 -24 9 -42 31 -65 38 -39 58
-44 124 -34 l50 7 0 50 c0 48 -1 49 -34 56 -58 12 -85 -12 -36 -31 31 -12 32
-24 1 -38 -18 -8 -31 -8 -51 1 -31 14 -39 42 -28 88 8 30 13 34 48 37 27 2 41
-1 47 -12 9 -16 39 -22 51 -10 11 11 -12 43 -43 59 -35 18 -55 18 -97 0z"/>
<path d="M4225 1108 c-3 -7 -3 -40 -1 -73 2 -33 4 -77 5 -98 1 -34 4 -38 24
-35 18 2 23 11 27 43 5 37 7 40 38 40 45 1 50 -4 54 -50 2 -26 8 -40 17 -40
11 0 14 23 15 103 0 57 -2 109 -5 114 -11 18 -29 -2 -29 -31 0 -36 -21 -53
-57 -49 -19 2 -29 9 -31 23 -8 55 -13 65 -33 65 -11 0 -22 -6 -24 -12z"/>
<path d="M3914 1097 c-3 -8 -3 -56 -2 -108 2 -76 6 -94 18 -94 12 0 16 20 18
108 2 92 0 107 -13 107 -9 0 -18 -6 -21 -13z"/>
</g>
</svg>
